# xmcd
#
# Track frame offsets:
#	150
#	17507
#	36175
#	58557
#	78715
#	94645
#	108431
#	126295
#	140520
#	157482
#	174645
#	194665
#	216152
#	236229
#	253784
#	274453
#
# Disc length: 3870 seconds
#
# Revision: 1
# Processed by: cddbd v1.5.2PL0 Copyright (c) Steve Scherf et al.
# Submitted via: audiograbber 1.83.01
#
DISCID=f70f1c10
DTITLE=Best Of Rock - 90s Rock
DYEAR=2003
DGENRE=Rock
TTITLE0=Philadelphia Project - Streets Of Philadelphia
TTITLE1=Journey - When You Love A Woman
TTITLE2=Night Ranger - Forever All Over Again
TTITLE3=Santana - Gypsy Woman
TTITLE4=Soul Asylum - Without A Trace
TTITLE5=Tesla - Signs
TTITLE6=H-Blockx - Risin' High
TTITLE7=Gotthard - All I Care For
TTITLE8=Steve Perry - You Better Wait
TTITLE9=Warrant - I Saw Red
TTITLE10=Silverchair - Tomorrow
TTITLE11=Bad English - Price Of Love
TTITLE12=Firehouse - All She Wrote
TTITLE13=Spin Doctors - Little Miss Can't Be Wrong
TTITLE14=Del Amitri - Driving With The Brakes On
TTITLE15=Eddie Money - I'll Get By
EXTD=
EXTT0=
EXTT1=
EXTT2=
EXTT3=
EXTT4=
EXTT5=
EXTT6=
EXTT7=
EXTT8=
EXTT9=
EXTT10=
EXTT11=
EXTT12=
EXTT13=
EXTT14=
EXTT15=
PLAYORDER=
